<svg width="16" height="16" viewBox="0 0 16 16" fill="none" xmlns="http://www.w3.org/2000/svg">
<path d="M2.98385 0.25C2.56964 0.25 2.23385 0.585786 2.23385 1C2.23385 1.41421 2.56964 1.75 2.98385 1.75V0.25ZM15 1H15.75C15.75 0.585786 15.4142 0.25 15 0.25V1ZM14.25 13.0147C14.25 13.4289 14.5858 13.7647 15 13.7647C15.4142 13.7647 15.75 13.4289 15.75 13.0147H14.25ZM0.46967 14.4697C0.176777 14.7626 0.176777 15.2374 0.46967 15.5303C0.762563 15.8232 1.23744 15.8232 1.53033 15.5303L0.46967 14.4697ZM15.5125 1.54818C15.8054 1.25528 15.8054 0.780408 15.5125 0.487515C15.2196 0.194622 14.7447 0.194622 14.4518 0.487515L15.5125 1.54818ZM2.98385 1.75H15V0.25H2.98385V1.75ZM14.25 1V13.0147H15.75V1H14.25ZM1.53033 15.5303L15.5125 1.54818L14.4518 0.487515L0.46967 14.4697L1.53033 15.5303Z" fill="#F20009"/>
</svg>
