<svg width="22" height="18" viewBox="0 0 22 18" fill="none" xmlns="http://www.w3.org/2000/svg">
<path d="M21.6593 0.492795C21.3906 0.174978 20.9881 0 20.5258 0C20.2746 0 20.0083 0.0511299 19.7348 0.152253L1.11221 7.02687C0.123936 7.3916 -0.00916649 7.93893 -0.000606341 8.23273C0.00795381 8.52652 0.172947 9.06574 1.18103 9.37593C1.18707 9.37771 1.19312 9.3795 1.19916 9.38112L5.06197 10.4501L7.15099 16.227C7.43582 17.0146 8.07515 17.5038 8.81972 17.5038C9.28918 17.5038 9.75093 17.3136 10.1551 16.9539L12.5444 14.8264L16.0099 17.5249C16.0103 17.5252 16.0108 17.5254 16.0111 17.5257L16.044 17.5514C16.047 17.5536 16.0502 17.5561 16.0532 17.5583C16.4384 17.8473 16.8589 17.9998 17.2696 18H17.2698C18.0722 18 18.7112 17.4256 18.8974 16.5367L21.9487 1.96647C22.0712 1.38164 21.9685 0.858333 21.6593 0.492795ZM6.35422 10.2471L13.8068 6.56524L9.16632 11.3336C9.09028 11.4117 9.03641 11.5073 9.00989 11.6114L8.1151 15.1164L6.35422 10.2471ZM9.2818 16.0368C9.25091 16.0642 9.21986 16.0887 9.18881 16.1113L10.019 12.8597L11.5291 14.0357L9.2818 16.0368ZM20.6853 1.71894L17.634 16.2893C17.6046 16.4288 17.5108 16.7532 17.2696 16.7532C17.1504 16.7532 17.0007 16.6904 16.8475 16.5763L12.9205 13.5186C12.92 13.5181 12.9194 13.5176 12.9187 13.5173L10.5821 11.6977L17.2928 4.80199C17.5076 4.58124 17.5271 4.24313 17.3389 4.00063C17.1506 3.75813 16.8094 3.68184 16.5302 3.81981L5.493 9.27269L1.57765 8.18939L20.1945 1.31688C20.3518 1.25877 20.4615 1.2466 20.5258 1.2466C20.5653 1.2466 20.6354 1.25114 20.6614 1.28214C20.6957 1.32256 20.7393 1.46037 20.6853 1.71894Z" fill="#020105"/>
</svg>
